<?xml version="1.0" encoding="UTF-8" standalone="no"?>
<!DOCTYPE svg PUBLIC "-//W3C//DTD SVG 1.1//EN"
"http://www.w3.org/Graphics/SVG/1.1/DTD/svg11.dtd">
<svg version="1.1" xmlns="http://www.w3.org/2000/svg"
xmlns:xlink="http://www.w3.org/1999/xlink" xml:space="preserve"
 width="1466" height="1043" viewBox="0 0 1466 1043">
 onmousemove="movetip(evt)" onmouseup="endmove()">
<rect x="0" y="0" width="100%" height="100%" style="fill:White;"/>
<script type="application/ecmascript"> <![CDATA[
var dragtipid = null; var dragcase = false; function init(evt){
if (window.svgDocument==null) svgDocument = evt.target.ownerDocument;
}
function movetip(evt){if (dragtipid!=null){ dragcase = true;
var tip=svgDocument.getElementById(dragtipid);
tip.setAttributeNS(null,"x",evt.clientX-2);
tip.setAttributeNS(null,"y",evt.clientY-2);
}}
function endmove(){dragtipid = null;}
function startmove(evt,id){dragtipid = id; dragcase = false;
var tip=svgDocument.getElementById(dragtipid);
tip.setAttributeNS(null,"x",evt.clientX-2);
tip.setAttributeNS(null,"y",evt.clientY-2);
}
function Showtip(evt,id){ dragtipid = null;
var tip=svgDocument.getElementById(id);
var vis=tip.getAttributeNS(null,"visibility");
if (vis=="hidden"){
tip.setAttributeNS(null,"x",evt.clientX-2);
tip.setAttributeNS(null,"y",evt.clientY-2);
tip.setAttributeNS(null,"visibility","visible");
}}
function Hidetip(id){ dragtipid = null; if (dragcase==false){
var tip=svgDocument.getElementById(id);
tip.setAttributeNS(null,"visibility","hidden");
}}
]]></script>
<defs><linearGradient id="activ1" x1="0%" y1="0%" x2="100%" y2="0%">
<stop offset="0%" style="stop-color:#FFFF00;stop-opacity:1"/>
<stop offset="100%" style="stop-color:#FFFFF0;stop-opacity:1"/>
</linearGradient></defs>
<g id="2002723501"><polygon points="268,17 501,17 501,224 268,224 "
style="fill:#F4D03F; stroke-width:1;stroke:Black;"/>
<text style="font-family:Arial;font-size:12px;kerning:0;word-spacing:-1px;fill:Black;font-weight:bold;">
<tspan x="327" y="32">wikiba:Property (39)</tspan>
</text>
<line x1="272" y1="35" x2="499" y2="35"
 style="stroke-width:1;stroke:Black;"/>
<text style="font-family:Arial;font-size:12px;kerning:0;word-spacing:-1px;fill:Black;">
<tspan x="272" y="47">direct:P10 (12) [1] D</tspan>
<tspan x="272" y="62">direct:P12 (13) [1] </tspan>
<tspan x="272" y="77">direct:P22 (5) [1] D</tspan>
<tspan x="272" y="92">dn:P12 (13) [*]  -&gt; IRI</tspan>
<tspan x="272" y="107">rdfs:label (449) [*] </tspan>
<tspan x="272" y="122">schema:description (60) [*] </tspan>
<tspan x="272" y="137">schema:name (44) [*] </tspan>
<tspan x="272" y="152">skos:altLabel (119) [*] </tspan>
<tspan x="272" y="167">skos:prefLabel (44) [*] </tspan>
<tspan x="272" y="182">wikiba:propertyType (39) [1] D -&gt; IRI</tspan>
<tspan x="272" y="197">wikiba:timestamp (39) [1] </tspan>
<tspan x="272" y="212">&lt;&gt; direct:P36  DR</tspan>
</text>
</g>
<g id="2002723512"><polygon points="109,390 409,390 409,560 109,560 "
style="fill:#F4D03F; stroke-width:1;stroke:Black;"/>
<polygon points="106,393 406,393 406,563 106,563 "
style="fill:#F4D03F; stroke-width:1;stroke:Black;"/>
<text style="font-family:Arial;font-size:12px;kerning:0;word-spacing:-1px;fill:Black;font-weight:bold;">
<tspan x="143" y="408">novalue:P14 or novalue:P8 G101 (1192)</tspan>
</text>
<line x1="110" y1="411" x2="404" y2="411"
 style="stroke-width:1;stroke:Black;"/>
<text style="font-family:Arial;font-size:12px;kerning:0;word-spacing:-1px;fill:Black;">
<tspan x="110" y="423">direct:P11 (595) [1] </tspan>
<tspan x="110" y="438">direct:P14 (151 71%d) [*]  -&gt; IRI</tspan>
<tspan x="110" y="453">direct:P15 (1) [1] </tspan>
<tspan x="110" y="468">dn:P14 (119) [*]  -&gt; IRI</tspan>
<tspan x="110" y="483">rdfs:label (606) [*] </tspan>
<tspan x="110" y="498">schema:description (596) [*] </tspan>
<tspan x="110" y="513">wikiba:identifiers (494) [*] </tspan>
<tspan x="110" y="528">wikiba:timestamp (494) [1] </tspan>
</text>
<text style="font-family:Arial;font-size:11px;kerning:0;word-spacing:-1px;fill:Black;font-weight:bold;">
<tspan x="110" y="543">novalue:P14 (804)</tspan>
<tspan x="110" y="558">novalue:P8 (388)</tspan>
</text>
</g>
<g id="2002723523"><polygon points="1186,452 1456,452 1456,497 1186,497 "
style="fill:#F4D03F; stroke-width:1;stroke:Black;"/>
<text style="font-family:Arial;font-size:12px;kerning:0;word-spacing:-1px;fill:Black;font-weight:bold;">
<tspan x="1263" y="467">wikiba:Reference (5)</tspan>
</text>
<line x1="1190" y1="470" x2="1454" y2="470"
 style="stroke-width:1;stroke:Black;"/>
<text style="font-family:Arial;font-size:12px;kerning:0;word-spacing:-1px;fill:Black;">
<tspan x="1190" y="482">re-vn:P12 (2) [*] D -&gt; IRI</tspan>
</text>
</g>
<g id="2002723534"><polygon points="1071,396 1323,396 1323,446 1071,446 "
style="fill:#F4D03F; stroke-width:1;stroke:Black;"/>
<text style="font-family:Arial;font-size:12px;kerning:0;word-spacing:-1px;fill:Black;font-weight:bold;">
<tspan x="1127" y="411">wikiba:TimeValue (1842)</tspan>
</text>
<line x1="1075" y1="414" x2="1321" y2="414"
 style="stroke-width:1;stroke:Black;"/>
<text style="font-family:Arial;font-size:12px;kerning:0;word-spacing:-1px;fill:Black;">
<tspan x="1075" y="426">wikiba:timeCalendarModel (1842) [1] D -&gt; IRI</tspan>
<tspan x="1075" y="441">wikiba:timeValue (1842) [1] D</tspan>
</text>
</g>
<g id="2002723545"><polygon points="19,17 254,17 254,60 19,60 "
style="fill:#F4D03F; stroke-width:1;stroke:Black;"/>
<text style="font-family:Arial;font-size:12px;kerning:0;word-spacing:-1px;fill:Black;font-weight:bold;">
<tspan x="65" y="32">owl:ObjectProperty (272)</tspan>
</text>
</g>
<g id="2002723556"><polygon points="151,624 572,624 572,900 151,900 "
style="fill:White; stroke-width:1;stroke:Black;"/>
<text style="font-family:Arial;font-size:12px;kerning:0;word-spacing:-1px;fill:Black;">
<tspan x="155" y="638">PREFIX direct: &lt;https://lingualibre.org/prop/direct/&gt;</tspan>
<tspan x="155" y="653">PREFIX wikiba: &lt;http://wikiba.se/ontology#&gt;</tspan>
<tspan x="155" y="668">PREFIX statement: &lt;https://lingualibre.org/prop/statement/&gt;</tspan>
<tspan x="155" y="683">PREFIX prop: &lt;https://lingualibre.org/prop/&gt;</tspan>
<tspan x="155" y="698">PREFIX schema: &lt;http://schema.org/&gt;</tspan>
<tspan x="155" y="713">PREFIX owl: &lt;http://www.w3.org/2002/07/owl#&gt;</tspan>
<tspan x="155" y="728">PREFIX novalue: &lt;https://lingualibre.org/prop/novalue/&gt;</tspan>
<tspan x="155" y="743">PREFIX vn: &lt;https://lingualibre.org/prop/statement/value-normalized/&gt;</tspan>
<tspan x="155" y="758">PREFIX dn: &lt;https://lingualibre.org/prop/direct-normalized/&gt;</tspan>
<tspan x="155" y="773">PREFIX qual: &lt;https://lingualibre.org/prop/qualifier/&gt;</tspan>
<tspan x="155" y="788">PREFIX skos: &lt;http://www.w3.org/2004/02/skos/core#&gt;</tspan>
<tspan x="155" y="803">PREFIX rdf: &lt;http://www.w3.org/1999/02/22-rdf-syntax-ns#&gt;</tspan>
<tspan x="155" y="818">PREFIX rdfs: &lt;http://www.w3.org/2000/01/rdf-schema#&gt;</tspan>
<tspan x="155" y="833">PREFIX prov: &lt;http://www.w3.org/ns/prov#&gt;</tspan>
<tspan x="155" y="848">PREFIX re-vn: &lt;https://lingualibre.org/prop/reference/value-normalized/&gt;</tspan>
<tspan x="155" y="863">PREFIX cc: &lt;http://creativecommons.org/ns#&gt;</tspan>
<tspan x="155" y="878">PREFIX st-v: &lt;https://lingualibre.org/prop/statement/value/&gt;</tspan>
<tspan x="155" y="893">PREFIX q-vn: &lt;https://lingualibre.org/prop/qualifier/value-normalized/&gt;</tspan>
</text>
</g>
<g id="2002723567"><polygon points="19,245 213,245 213,370 19,370 "
style="fill:#F4D03F; stroke-width:1;stroke:Black;"/>
<text style="font-family:Arial;font-size:12px;kerning:0;word-spacing:-1px;fill:Black;font-weight:bold;">
<tspan x="72" y="260">novalue:P13 (6)</tspan>
</text>
<line x1="23" y1="263" x2="211" y2="263"
 style="stroke-width:1;stroke:Black;"/>
<text style="font-family:Arial;font-size:12px;kerning:0;word-spacing:-1px;fill:Black;">
<tspan x="23" y="275">direct:P12 (3) [1] </tspan>
<tspan x="23" y="290">direct:P27 (1) [1] </tspan>
<tspan x="23" y="305">direct:P39 (1) [*] </tspan>
<tspan x="23" y="320">dn:P12 (4) [*]  -&gt; IRI</tspan>
<tspan x="23" y="335">rdfs:label (42) [*] </tspan>
<tspan x="23" y="350">wikiba:identifiers (2) [*] </tspan>
<tspan x="23" y="365">wikiba:timestamp (2) [1] </tspan>
</text>
</g>
<g id="2002723578"><polygon points="1059,629 1359,629 1359,674 1059,674 "
style="fill:#F4D03F; stroke-width:1;stroke:Black;"/>
<text style="font-family:Arial;font-size:12px;kerning:0;word-spacing:-1px;fill:Black;font-weight:bold;">
<tspan x="1140" y="644">schema:Dataset (7.0e5)</tspan>
</text>
<line x1="1063" y1="647" x2="1357" y2="647"
 style="stroke-width:1;stroke:Black;"/>
<text style="font-family:Arial;font-size:12px;kerning:0;word-spacing:-1px;fill:Black;">
<tspan x="1063" y="659">wikiba:identifiers (7.0e5) [*] </tspan>
</text>
</g>
<g id="2002723589"><polygon points="1059,556 1359,556 1359,621 1059,621 "
style="fill:#F4D03F; stroke-width:1;stroke:Black;"/>
<text style="font-family:Arial;font-size:12px;kerning:0;word-spacing:-1px;fill:Black;font-weight:bold;">
<tspan x="1157" y="571">schema:Article (8)</tspan>
</text>
<line x1="1063" y1="574" x2="1357" y2="574"
 style="stroke-width:1;stroke:Black;"/>
<text style="font-family:Arial;font-size:12px;kerning:0;word-spacing:-1px;fill:Black;">
<tspan x="1063" y="586">schema:inLanguage (8) [1] D</tspan>
<tspan x="1063" y="601">schema:isPartOf (8) [1] D -&gt; IRI</tspan>
<tspan x="1063" y="616">schema:name (8) [*] </tspan>
</text>
</g>
<g id="2002723600"><polygon points="589,548 889,548 889,1033 589,1033 "
style="fill:#F4D03F; stroke-width:1;stroke:Black;"/>
<text style="font-family:Arial;font-size:12px;kerning:0;word-spacing:-1px;fill:Black;font-weight:bold;">
<tspan x="685" y="563">wikiba:Item (7.0e5)</tspan>
</text>
<line x1="593" y1="566" x2="887" y2="566"
 style="stroke-width:1;stroke:Black;"/>
<text style="font-family:Arial;font-size:12px;kerning:0;word-spacing:-1px;fill:Black;">
<tspan x="593" y="578">direct:P11 (1109) [1] </tspan>
<tspan x="593" y="593">direct:P12 (2.7e4) [1] </tspan>
<tspan x="593" y="608">direct:P13 (172) [*] </tspan>
<tspan x="593" y="623">direct:P14 (1117 77%d) [*]  -&gt; IRI</tspan>
<tspan x="593" y="638">direct:P17 (21) [*] </tspan>
<tspan x="593" y="653">direct:P18 (3782) [1] </tspan>
<tspan x="593" y="668">direct:P19 (3.7e4) [*] </tspan>
<tspan x="593" y="683">direct:P20 (1.4e5) [*] </tspan>
<tspan x="593" y="698">direct:P21 (1.3e4) [*] </tspan>
<tspan x="593" y="713">direct:P26 (155) [1] </tspan>
<tspan x="593" y="728">direct:P28 (1) [1] D</tspan>
<tspan x="593" y="743">direct:P29 (1) [1] D</tspan>
<tspan x="593" y="758">direct:P30 (2) [1] D -&gt; IRI</tspan>
<tspan x="593" y="773">direct:P31 (1) [1] D</tspan>
<tspan x="593" y="788">direct:P38 (1) [1] </tspan>
<tspan x="593" y="803">dn:P12 (5.2e4) [*]  -&gt; IRI</tspan>
<tspan x="593" y="818">dn:P14 (1096) [*]  -&gt; IRI</tspan>
<tspan x="593" y="833">dn:P21 (1.3e4) [*]  -&gt; IRI</tspan>
<tspan x="593" y="848">dn:P28 (1) [1] D -&gt; IRI</tspan>
<tspan x="593" y="863">dn:P29 (1) [1] D -&gt; IRI</tspan>
<tspan x="593" y="878">rdfs:label (7.1e5) [*] </tspan>
<tspan x="593" y="893">schema:description (7.1e5) [*] </tspan>
<tspan x="593" y="908">schema:name (7.1e5) [*] </tspan>
<tspan x="593" y="923">skos:altLabel (1432) [*] </tspan>
<tspan x="593" y="938">skos:prefLabel (7.1e5) [*] </tspan>
<tspan x="593" y="953">wikiba:identifiers (2.5e5) [*] </tspan>
<tspan x="593" y="968">wikiba:timestamp (2.5e5) [1] </tspan>
<tspan x="593" y="983">&lt;&gt; direct:P24  </tspan>
<tspan x="593" y="998">&lt;&gt; direct:P32  DR</tspan>
<tspan x="593" y="1013">&lt;&gt; direct:P33  R</tspan>
<tspan x="593" y="1028">&lt;&gt; direct:P37  DR</tspan>
</text>
</g>
<g id="2002723611"><polygon points="958,227 1258,227 1258,337 958,337 "
style="fill:#F4D03F; stroke-width:1;stroke:Black;"/>
<text style="font-family:Arial;font-size:12px;kerning:0;word-spacing:-1px;fill:Black;font-weight:bold;">
<tspan x="1037" y="242">wikiba:Statement (5.1e6)</tspan>
</text>
<line x1="962" y1="245" x2="1256" y2="245"
 style="stroke-width:1;stroke:Black;"/>
<text style="font-family:Arial;font-size:12px;kerning:0;word-spacing:-1px;fill:Black;">
<tspan x="962" y="257">q-vn:P14 (1) [1] D -&gt; IRI</tspan>
<tspan x="962" y="272">qual:P35 (334) [1] D -&gt; IRI</tspan>
<tspan x="962" y="287">qual:P4 (7) [1] D -&gt; IRI</tspan>
<tspan x="962" y="302">nv:P28 (1) [1] D -&gt; IRI</tspan>
<tspan x="962" y="317">nv:P29 (1) [1] D -&gt; IRI</tspan>
<tspan x="962" y="332">statement:P3 (7.0e5) [1]  -&gt; IRI</tspan>
</text>
</g>
<g id="2002723622"><polygon points="989,156 1157,156 1157,188 989,188 "
style="fill:#F4D03F; stroke-width:1;stroke:Black;"/>
<text style="font-family:Arial;font-size:12px;kerning:0;word-spacing:-1px;fill:Black;font-weight:bold;">
<tspan x="1026" y="171">novalue:P15 (10)</tspan>
</text>
</g>
<g id="2002723633"><polygon points="1057,713 1357,713 1357,778 1057,778 "
style="fill:#F4D03F; stroke-width:1;stroke:Black;"/>
<text style="font-family:Arial;font-size:12px;kerning:0;word-spacing:-1px;fill:Black;font-weight:bold;">
<tspan x="1161" y="728">owl:Ontology (1)</tspan>
</text>
<line x1="1061" y1="731" x2="1355" y2="731"
 style="stroke-width:1;stroke:Black;"/>
<text style="font-family:Arial;font-size:12px;kerning:0;word-spacing:-1px;fill:Black;">
<tspan x="1061" y="743">cc:license (1) [1] D -&gt; IRI</tspan>
<tspan x="1061" y="758">rdf:type () [1] </tspan>
<tspan x="1061" y="773">schema:softwareVersion (1) [1] D</tspan>
</text>
</g>
<g id="2002723644"><polygon points="589,154 889,154 889,444 589,444 "
style="fill:#F4D03F; stroke-width:1;stroke:Black;"/>
<text style="font-family:Arial;font-size:12px;kerning:0;word-spacing:-1px;fill:Black;font-weight:bold;">
<tspan x="669" y="169">wikiba:BestRank (9.0e6)</tspan>
</text>
<line x1="593" y1="172" x2="887" y2="172"
 style="stroke-width:1;stroke:Black;"/>
<text style="font-family:Arial;font-size:12px;kerning:0;word-spacing:-1px;fill:Black;">
<tspan x="593" y="184">qual:P40 (1) [1] D</tspan>
<tspan x="593" y="199">qual:P41 (1) [1] D</tspan>
<tspan x="593" y="214">nv:P12 (5.9e4) [*] D -&gt; IRI</tspan>
<tspan x="593" y="229">nv:P14 (2084) [*] D -&gt; IRI</tspan>
<tspan x="593" y="244">nv:P21 (3.5e4) [1] D -&gt; IRI</tspan>
<tspan x="593" y="259">statement:P10 (12) [1] D</tspan>
<tspan x="593" y="274">statement:P11 (2488) [1] D</tspan>
<tspan x="593" y="289">statement:P12 (3.4e4) [1] D</tspan>
<tspan x="593" y="304">statement:P13 (722) [1] D</tspan>
<tspan x="593" y="319">statement:P14 (2214 84%d) [*] D -&gt; IRI</tspan>
<tspan x="593" y="334">statement:P15 (2) [1] D</tspan>
<tspan x="593" y="349">statement:P17 (280) [1] D</tspan>
<tspan x="593" y="364">statement:P18 (9069) [1] D</tspan>
<tspan x="593" y="379">statement:P19 (8.9e4) [1] D</tspan>
<tspan x="593" y="394">statement:P3 (1.2e6) [1]  -&gt; IRI</tspan>
<tspan x="593" y="409">statement:P6 (1.2e6) [*] D</tspan>
<tspan x="593" y="424">statement:P7 (1.2e6 99.9%d) [*] D -&gt; IRI</tspan>
<tspan x="593" y="439">statement:P8 (2293) [*] D -&gt; IRI</tspan>
</text>
</g>
<g id="2002723655"><polygon points="1059,503 1359,503 1359,548 1059,548 "
style="fill:#F4D03F; stroke-width:1;stroke:Black;"/>
<text style="font-family:Arial;font-size:12px;kerning:0;word-spacing:-1px;fill:Black;font-weight:bold;">
<tspan x="1151" y="518">owl:Restriction (400)</tspan>
</text>
<line x1="1063" y1="521" x2="1357" y2="521"
 style="stroke-width:1;stroke:Black;"/>
<text style="font-family:Arial;font-size:12px;kerning:0;word-spacing:-1px;fill:Black;">
<tspan x="1063" y="533">owl:someValuesFrom (400) [1] D -&gt; IRI</tspan>
</text>
</g>
<g id="2002723666"><polygon points="638,100 798,100 798,130 638,130 "
style="fill:#F4D03F; stroke-width:1;stroke:Black;"/>
<text style="font-family:Arial;font-size:12px;kerning:0;word-spacing:-1px;fill:Black;font-weight:bold;">
<tspan x="678" y="115">owl:Class (39)</tspan>
</text>
</g>
<g id="2002723677"><polygon points="634,48 827,48 827,77 634,77 "
style="fill:#F4D03F; stroke-width:1;stroke:Black;"/>
<text style="font-family:Arial;font-size:12px;kerning:0;word-spacing:-1px;fill:Black;font-weight:bold;">
<tspan x="656" y="63">owl:DatatypeProperty (96)</tspan>
</text>
</g>
<g id="2002723410"><path d="M701,548 L701,444 "
style="fill:none;stroke-width:1;stroke:Black;"/>
<line x1="698" y1="450" x2="701" y2="444"
 style="stroke-width:1;stroke:Black;"/>
<line x1="704" y1="450" x2="701" y2="444"
 style="stroke-width:1;stroke:Black;"/>
<text style="font-family:Arial;font-size:12px;kerning:0;word-spacing:-1px;fill:Black;">
<tspan x="634" y="469">prop:P7  R</tspan>
<tspan x="634" y="484">prop:P9  R</tspan>
<tspan x="634" y="499">prop:P6  R</tspan>
<tspan x="634" y="514">prop:P8  R</tspan>
<tspan x="634" y="529">prop:P33  R</tspan>
<tspan x="634" y="544">prop:P38  R</tspan>
</text>
</g>
<g id="2002723415"><path d="M406,420 L589,420 "
style="fill:none;stroke-width:1;stroke:Black;"/>
<line x1="583" y1="417" x2="589" y2="420"
 style="stroke-width:1;stroke:Black;"/>
<line x1="583" y1="423" x2="589" y2="420"
 style="stroke-width:1;stroke:Black;"/>
<text style="font-family:Arial;font-size:12px;kerning:0;word-spacing:-1px;fill:Black;">
<tspan x="410" y="418">prop:P8  R</tspan>
</text>
</g>
<g id="2002723420"><path d="M889,697 L1038,697 1042,695 1044,691 1044,337 "
style="fill:none;stroke-width:1;stroke:Black;"/>
<line x1="1041" y1="343" x2="1044" y2="337"
 style="stroke-width:1;stroke:Black;"/>
<line x1="1047" y1="343" x2="1044" y2="337"
 style="stroke-width:1;stroke:Black;"/>
<text style="font-family:Arial;font-size:12px;kerning:0;word-spacing:-1px;fill:Black;">
<tspan x="893" y="650">prop:P32  DR</tspan>
<tspan x="893" y="665">prop:P30  DR</tspan>
<tspan x="893" y="680">prop:P31  DR</tspan>
<tspan x="893" y="695">prop:P37  DR</tspan>
</text>
</g>
<g id="2002723425"><path d="M1258,244 L1420,244 1424,246 1426,250 1426,452 "
style="fill:none;stroke-width:1;stroke:Black;"/>
<line x1="1423" y1="446" x2="1426" y2="452"
 style="stroke-width:1;stroke:Black;"/>
<line x1="1429" y1="446" x2="1426" y2="452"
 style="stroke-width:1;stroke:Black;"/>
<text style="font-family:Arial;font-size:12px;kerning:0;word-spacing:-1px;fill:Black;">
<tspan x="1262" y="242">prov:wasDerivedFrom  DR</tspan>
</text>
</g>
<g id="2002723430"><path d="M589,324 L213,324 "
style="fill:none;stroke-width:1;stroke:Black;"/>
<line x1="219" y1="321" x2="213" y2="324"
 style="stroke-width:1;stroke:Black;"/>
<line x1="219" y1="327" x2="213" y2="324"
 style="stroke-width:1;stroke:Black;"/>
<text style="font-family:Arial;font-size:12px;kerning:0;word-spacing:-1px;fill:Black;">
<tspan x="506" y="337">statement:P4  </tspan>
</text>
</g>
<g id="2002723435"><path d="M589,399 L406,399 "
style="fill:none;stroke-width:1;stroke:Black;"/>
<line x1="412" y1="396" x2="406" y2="399"
 style="stroke-width:1;stroke:Black;"/>
<line x1="412" y1="402" x2="406" y2="399"
 style="stroke-width:1;stroke:Black;"/>
<text style="font-family:Arial;font-size:12px;kerning:0;word-spacing:-1px;fill:Black;">
<tspan x="497" y="412">statement:P5  D</tspan>
</text>
</g>
<g id="2002723440"><path d="M65,370 L65,579 67,583 71,585 589,585 "
style="fill:none;stroke-width:1;stroke:Black;"/>
<line x1="583" y1="582" x2="589" y2="585"
 style="stroke-width:1;stroke:Black;"/>
<line x1="583" y1="588" x2="589" y2="585"
 style="stroke-width:1;stroke:Black;"/>
<text style="font-family:Arial;font-size:12px;kerning:0;word-spacing:-1px;fill:Black;">
<tspan x="67" y="385">direct:P24  </tspan>
</text>
</g>
<g id="2002723445"><path d="M406,554 L589,554 "
style="fill:none;stroke-width:1;stroke:Black;"/>
<line x1="583" y1="551" x2="589" y2="554"
 style="stroke-width:1;stroke:Black;"/>
<line x1="583" y1="557" x2="589" y2="554"
 style="stroke-width:1;stroke:Black;"/>
<text style="font-family:Arial;font-size:12px;kerning:0;word-spacing:-1px;fill:Black;">
<tspan x="410" y="552">direct:P24  </tspan>
</text>
</g>
<g id="2002723450"><path d="M964,337 L964,578 962,582 958,584 889,584 "
style="fill:none;stroke-width:1;stroke:Black;"/>
<line x1="895" y1="581" x2="889" y2="584"
 style="stroke-width:1;stroke:Black;"/>
<line x1="895" y1="587" x2="889" y2="584"
 style="stroke-width:1;stroke:Black;"/>
<text style="font-family:Arial;font-size:12px;kerning:0;word-spacing:-1px;fill:Black;">
<tspan x="966" y="352">qualif:P34  D</tspan>
</text>
</g>
<g id="2002723455"><path d="M213,355 L589,355 "
style="fill:none;stroke-width:1;stroke:Black;"/>
<line x1="583" y1="352" x2="589" y2="355"
 style="stroke-width:1;stroke:Black;"/>
<line x1="583" y1="358" x2="589" y2="355"
 style="stroke-width:1;stroke:Black;"/>
<text style="font-family:Arial;font-size:12px;kerning:0;word-spacing:-1px;fill:Black;">
<tspan x="217" y="353">prop:P39  R</tspan>
</text>
</g>
<g id="2002723460"><path d="M1164,337 L1164,396 "
style="fill:none;stroke-width:1;stroke:Black;"/>
<line x1="1161" y1="390" x2="1164" y2="396"
 style="stroke-width:1;stroke:Black;"/>
<line x1="1167" y1="390" x2="1164" y2="396"
 style="stroke-width:1;stroke:Black;"/>
<text style="font-family:Arial;font-size:12px;kerning:0;word-spacing:-1px;fill:Black;">
<tspan x="1166" y="352">st-v:P31  DR</tspan>
</text>
</g>
<g id="2002723470"><path d="M268,72 L51,72 47,70 45,66 45,60 "
style="fill:none;stroke-width:1;stroke:Black;"/>
<line x1="42" y1="66" x2="45" y2="60"
 style="stroke-width:1;stroke:Black;"/>
<line x1="48" y1="66" x2="45" y2="60"
 style="stroke-width:1;stroke:Black;"/>
<text style="font-family:Arial;font-size:12px;kerning:0;word-spacing:-1px;fill:Black;">
<tspan x="53" y="85">wikiba:qualifier  D</tspan>
<tspan x="53" y="100">wikiba:directClaim  D</tspan>
<tspan x="53" y="115">wikiba:referenceValue  DR</tspan>
<tspan x="53" y="130">wikiba:reference  D</tspan>
<tspan x="53" y="145">wikiba:qualifierValue  DR</tspan>
<tspan x="53" y="160">wikiba:statementValue  DR</tspan>
<tspan x="53" y="175">wikiba:claim  DR</tspan>
<tspan x="53" y="190">wikiba:statementValueNormalized  DR</tspan>
<tspan x="53" y="205">wikiba:directClaimNormalized  DR</tspan>
<tspan x="53" y="220">wikiba:referenceValueNormalized  DR</tspan>
</text>
</g>
<g id="2002723475"><path d="M774,444 L774,548 "
style="fill:none;stroke-width:1;stroke:Black;"/>
<line x1="771" y1="542" x2="774" y2="548"
 style="stroke-width:1;stroke:Black;"/>
<line x1="777" y1="542" x2="774" y2="548"
 style="stroke-width:1;stroke:Black;"/>
<text style="font-family:Arial;font-size:12px;kerning:0;word-spacing:-1px;fill:Black;">
<tspan x="776" y="459">statement:P4  </tspan>
<tspan x="776" y="474">statement:P2  D</tspan>
<tspan x="776" y="489">statement:P9  D</tspan>
<tspan x="776" y="504">statement:P5  D</tspan>
</text>
</g>
<g id="2002723480"><path d="M501,115 L638,115 "
style="fill:none;stroke-width:1;stroke:Black;"/>
<line x1="632" y1="112" x2="638" y2="115"
 style="stroke-width:1;stroke:Black;"/>
<line x1="632" y1="118" x2="638" y2="115"
 style="stroke-width:1;stroke:Black;"/>
<text style="font-family:Arial;font-size:12px;kerning:0;word-spacing:-1px;fill:Black;">
<tspan x="505" y="113">wikiba:novalue  DR</tspan>
</text>
</g>
<g id="2002723485"><path d="M501,64 L634,64 "
style="fill:none;stroke-width:1;stroke:Black;"/>
<line x1="628" y1="61" x2="634" y2="64"
 style="stroke-width:1;stroke:Black;"/>
<line x1="628" y1="67" x2="634" y2="64"
 style="stroke-width:1;stroke:Black;"/>
<text style="font-family:Arial;font-size:12px;kerning:0;word-spacing:-1px;fill:Black;">
<tspan x="505" y="32">wikiba:qualifier  D</tspan>
<tspan x="505" y="47">wikiba:directClaim  D</tspan>
<tspan x="505" y="62">wikiba:reference  D</tspan>
</text>
</g>
<g id="2002723490"><path d="M501,189 L589,189 "
style="fill:none;stroke-width:1;stroke:Black;"/>
<line x1="583" y1="186" x2="589" y2="189"
 style="stroke-width:1;stroke:Black;"/>
<line x1="583" y1="192" x2="589" y2="189"
 style="stroke-width:1;stroke:Black;"/>
<text style="font-family:Arial;font-size:12px;kerning:0;word-spacing:-1px;fill:Black;">
<tspan x="505" y="187">prop:P36  DR</tspan>
</text>
</g>
<g id="2002723495"><path d="M1208,674 L1208,713 "
style="fill:none;stroke-width:2;stroke:Fuchsia;"/>
<polygon points="1213,684 1208,674 1203,684 "
style="fill:Silver;stroke-width:1;stroke:Black;"/>
<text style="font-family:Arial;font-size:12px;kerning:0;word-spacing:-1px;fill:Black;">
<tspan x="1210" y="689"> </tspan>
</text>
</g>
<g id="2002723497"><path d="M1073,227 L1073,188 "
style="fill:none;stroke-width:2;stroke:Fuchsia;"/>
<polygon points="1078,217 1073,227 1068,217 "
style="fill:Silver;stroke-width:1;stroke:Black;"/>
<text style="font-family:Arial;font-size:12px;kerning:0;word-spacing:-1px;fill:Black;">
<tspan x="1061" y="223"> </tspan>
</text>
</g>
<g id="2002723499"><path d="M889,172 L989,172 "
style="fill:none;stroke-width:2;stroke:Fuchsia;"/>
<polygon points="899,177 889,172 899,167 "
style="fill:Silver;stroke-width:1;stroke:Black;"/>
<text style="font-family:Arial;font-size:12px;kerning:0;word-spacing:-1px;fill:Black;">
<tspan x="893" y="170"> </tspan>
</text>
</g>
</svg>
