<?xml version="1.0" encoding="UTF-8" standalone="no"?>
<!DOCTYPE svg PUBLIC "-//W3C//DTD SVG 1.1//EN"
"http://www.w3.org/Graphics/SVG/1.1/DTD/svg11.dtd">
<svg version="1.1" xmlns="http://www.w3.org/2000/svg"
xmlns:xlink="http://www.w3.org/1999/xlink" xml:space="preserve"
 width="701" height="717" viewBox="0 0 701 717">
 onmousemove="movetip(evt)" onmouseup="endmove()">
<rect x="0" y="0" width="100%" height="100%" style="fill:White;"/>
<script type="application/ecmascript"> <![CDATA[
var dragtipid = null; var dragcase = false; function init(evt){
if (window.svgDocument==null) svgDocument = evt.target.ownerDocument;
}
function movetip(evt){if (dragtipid!=null){ dragcase = true;
var tip=svgDocument.getElementById(dragtipid);
tip.setAttributeNS(null,"x",evt.clientX-2);
tip.setAttributeNS(null,"y",evt.clientY-2);
}}
function endmove(){dragtipid = null;}
function startmove(evt,id){dragtipid = id; dragcase = false;
var tip=svgDocument.getElementById(dragtipid);
tip.setAttributeNS(null,"x",evt.clientX-2);
tip.setAttributeNS(null,"y",evt.clientY-2);
}
function Showtip(evt,id){ dragtipid = null;
var tip=svgDocument.getElementById(id);
var vis=tip.getAttributeNS(null,"visibility");
if (vis=="hidden"){
tip.setAttributeNS(null,"x",evt.clientX-2);
tip.setAttributeNS(null,"y",evt.clientY-2);
tip.setAttributeNS(null,"visibility","visible");
}}
function Hidetip(id){ dragtipid = null; if (dragcase==false){
var tip=svgDocument.getElementById(id);
tip.setAttributeNS(null,"visibility","hidden");
}}
]]></script>
<defs><linearGradient id="activ1" x1="0%" y1="0%" x2="100%" y2="0%">
<stop offset="0%" style="stop-color:#FFFF00;stop-opacity:1"/>
<stop offset="100%" style="stop-color:#FFFFF0;stop-opacity:1"/>
</linearGradient></defs>
<g id="2002723767"><polygon points="438,23 671,23 671,103 438,103 "
style="fill:#F4D03F; stroke-width:1;stroke:Black;"/>
<text style="font-family:Arial;font-size:12px;kerning:0;word-spacing:-1px;fill:Black;font-weight:bold;">
<tspan x="491" y="38">dcat:Distribution (132)</tspan>
</text>
<line x1="442" y1="41" x2="669" y2="41"
 style="stroke-width:1;stroke:Black;"/>
<text style="font-family:Arial;font-size:12px;kerning:0;word-spacing:-1px;fill:Black;">
<tspan x="442" y="53">dcat:byteSize (2) [1] D</tspan>
<tspan x="442" y="68">dcat:downloadURL (2) [1] D -&gt; IRI</tspan>
<tspan x="442" y="83">dcat:mediaType (842) [*] D</tspan>
<tspan x="442" y="98">rdf:type (262) [*]  -&gt; IRI</tspan>
</text>
</g>
<g id="2002723778"><polygon points="22,20 322,20 322,190 22,190 "
style="fill:#F4D03F; stroke-width:1;stroke:Black;"/>
<polygon points="19,23 319,23 319,193 19,193 "
style="fill:#F4D03F; stroke-width:1;stroke:Black;"/>
<text style="font-family:Arial;font-size:12px;kerning:0;word-spacing:-1px;fill:Black;font-weight:bold;">
<tspan x="40" y="38">dcat:Dataset or wgs84_pos:Point G101 (139)</tspan>
</text>
<line x1="23" y1="41" x2="317" y2="41"
 style="stroke-width:1;stroke:Black;"/>
<text style="font-family:Arial;font-size:12px;kerning:0;word-spacing:-1px;fill:Black;">
<tspan x="23" y="53">dcat:contactPoint (139) [*] D -&gt; IRI</tspan>
<tspan x="23" y="68">dcat:keyword (337) [*] D</tspan>
<tspan x="23" y="83">dcat:landingPage (139) [1] D -&gt; IRI</tspan>
<tspan x="23" y="98">dct:description (139) [1] D</tspan>
<tspan x="23" y="113">dct:title (139) [1] D</tspan>
<tspan x="23" y="128">rdf:type (278) [*]  -&gt; IRI</tspan>
<tspan x="23" y="143">wgs84_pos:lat (139) [1] D</tspan>
<tspan x="23" y="158">wgs84_pos:long (139) [1] D</tspan>
</text>
<text style="font-family:Arial;font-size:11px;kerning:0;word-spacing:-1px;fill:Black;font-weight:bold;">
<tspan x="23" y="173">dcat:Dataset (139)</tspan>
<tspan x="23" y="188">wgs84_pos:Point (139)</tspan>
</text>
</g>
<g id="2002723789"><polygon points="446,214 671,214 671,259 446,259 "
style="fill:#F4D03F; stroke-width:1;stroke:Black;"/>
<text style="font-family:Arial;font-size:12px;kerning:0;word-spacing:-1px;fill:Black;font-weight:bold;">
<tspan x="482" y="229">owl:AnnotationProperty (5)</tspan>
</text>
<line x1="450" y1="232" x2="669" y2="232"
 style="stroke-width:1;stroke:Black;"/>
<text style="font-family:Arial;font-size:12px;kerning:0;word-spacing:-1px;fill:Black;">
<tspan x="450" y="244">rdf:type (6) [*]  -&gt; IRI</tspan>
</text>
</g>
<g id="2002723800"><polygon points="22,242 322,242 322,322 22,322 "
style="fill:#F4D03F; stroke-width:1;stroke:Black;"/>
<polygon points="19,245 319,245 319,325 19,325 "
style="fill:#F4D03F; stroke-width:1;stroke:Black;"/>
<text style="font-family:Arial;font-size:12px;kerning:0;word-spacing:-1px;fill:Black;font-weight:bold;">
<tspan x="48" y="260">wikidata:Item or skos:Concept G102 (280)</tspan>
</text>
<line x1="23" y1="263" x2="317" y2="263"
 style="stroke-width:1;stroke:Black;"/>
<text style="font-family:Arial;font-size:12px;kerning:0;word-spacing:-1px;fill:Black;">
<tspan x="23" y="275">rdf:type (560) [*]  -&gt; IRI</tspan>
<tspan x="23" y="290">rdfs:label (321) [*] </tspan>
</text>
<text style="font-family:Arial;font-size:11px;kerning:0;word-spacing:-1px;fill:Black;font-weight:bold;">
<tspan x="23" y="305">skos:Concept (280)</tspan>
<tspan x="23" y="320">wikidata:Item (280)</tspan>
</text>
</g>
<g id="2002723811"><polygon points="19,354 319,354 319,434 19,434 "
style="fill:#F4D03F; stroke-width:1;stroke:Black;"/>
<text style="font-family:Arial;font-size:12px;kerning:0;word-spacing:-1px;fill:Black;font-weight:bold;">
<tspan x="132" y="369">owl:Class (3)</tspan>
</text>
<line x1="23" y1="372" x2="317" y2="372"
 style="stroke-width:1;stroke:Black;"/>
<text style="font-family:Arial;font-size:12px;kerning:0;word-spacing:-1px;fill:Black;">
<tspan x="23" y="384">owl:unionOf (1) [1] D -&gt; IRI</tspan>
<tspan x="23" y="399">rdf:type (3) [*]  -&gt; IRI</tspan>
<tspan x="23" y="414">rdfs:label (2) [*] </tspan>
<tspan x="23" y="429">&lt;&gt; owl:complementOf  DR</tspan>
</text>
</g>
<g id="2002723822"><polygon points="453,275 671,275 671,385 453,385 "
style="fill:#F4D03F; stroke-width:1;stroke:Black;"/>
<text style="font-family:Arial;font-size:12px;kerning:0;word-spacing:-1px;fill:Black;font-weight:bold;">
<tspan x="523" y="290">sd:Service (1)</tspan>
</text>
<line x1="457" y1="293" x2="669" y2="293"
 style="stroke-width:1;stroke:Black;"/>
<text style="font-family:Arial;font-size:12px;kerning:0;word-spacing:-1px;fill:Black;">
<tspan x="457" y="305">rdf:type (1) [*]  -&gt; IRI</tspan>
<tspan x="457" y="320">sd:feature (2) [*] D -&gt; IRI</tspan>
<tspan x="457" y="335">sd:resultFormat (8) [*] D -&gt; IRI</tspan>
<tspan x="457" y="350">sd:supportedLanguage (1) [1] D -&gt; IRI</tspan>
<tspan x="457" y="365">&lt;&gt; sd:endpoint  DR</tspan>
<tspan x="457" y="380">&lt;&gt; sd:url  DR</tspan>
</text>
</g>
<g id="2002723833"><polygon points="442,149 671,149 671,199 442,199 "
style="fill:#F4D03F; stroke-width:1;stroke:Black;"/>
<text style="font-family:Arial;font-size:12px;kerning:0;word-spacing:-1px;fill:Black;font-weight:bold;">
<tspan x="508" y="164">sd:GRAPH (130)</tspan>
</text>
<line x1="446" y1="167" x2="669" y2="167"
 style="stroke-width:1;stroke:Black;"/>
<text style="font-family:Arial;font-size:12px;kerning:0;word-spacing:-1px;fill:Black;">
<tspan x="446" y="179">dcat:accessURL (130) [1] D -&gt; IRI</tspan>
<tspan x="446" y="194">dcat:tripleSize (84) [1] D</tspan>
</text>
</g>
<g id="2002723844"><polygon points="25,561 269,561 269,606 25,606 "
style="fill:#F4D03F; stroke-width:1;stroke:Black;"/>
<text style="font-family:Arial;font-size:12px;kerning:0;word-spacing:-1px;fill:Black;font-weight:bold;">
<tspan x="76" y="576">owl:OntologyProperty (4)</tspan>
</text>
</g>
<g id="2002723855"><polygon points="306,544 691,544 691,707 306,707 "
style="fill:White; stroke-width:1;stroke:Black;"/>
<text style="font-family:Arial;font-size:12px;kerning:0;word-spacing:-1px;fill:Black;">
<tspan x="310" y="558">PREFIX virtrdf: &lt;http://www.openlinksw.com/schemas/virtrdf#&gt;</tspan>
<tspan x="310" y="573">PREFIX dcat: &lt;http://www.w3.org/ns/dcat#&gt;</tspan>
<tspan x="310" y="588">PREFIX owl: &lt;http://www.w3.org/2002/07/owl#&gt;</tspan>
<tspan x="310" y="603">PREFIX rdfs: &lt;http://www.w3.org/2000/01/rdf-schema#&gt;</tspan>
<tspan x="310" y="618">PREFIX sd: &lt;http://www.w3.org/ns/sparql-service-description#&gt;</tspan>
<tspan x="310" y="633">PREFIX wgs84_pos: &lt;http://www.w3.org/2003/01/geo/wgs84_pos#&gt;</tspan>
<tspan x="310" y="648">PREFIX rdf: &lt;http://www.w3.org/1999/02/22-rdf-syntax-ns#&gt;</tspan>
<tspan x="310" y="663">PREFIX dct: &lt;http://purl.org/dc/terms/&gt;</tspan>
<tspan x="310" y="678">PREFIX skos: &lt;http://www.w3.org/2004/02/skos/core#&gt;</tspan>
<tspan x="310" y="693">PREFIX wikidata: &lt;http://www.wikidata.org/ontology#&gt;</tspan>
</text>
</g>
<g id="2002723866"><polygon points="19,473 319,473 319,538 19,538 "
style="fill:#F4D03F; stroke-width:1;stroke:Black;"/>
<text style="font-family:Arial;font-size:12px;kerning:0;word-spacing:-1px;fill:Black;font-weight:bold;">
<tspan x="123" y="488">rdf:Property (23)</tspan>
</text>
<line x1="23" y1="491" x2="317" y2="491"
 style="stroke-width:1;stroke:Black;"/>
<text style="font-family:Arial;font-size:12px;kerning:0;word-spacing:-1px;fill:Black;">
<tspan x="23" y="503">rdf:type (28) [*]  -&gt; IRI</tspan>
<tspan x="23" y="518">rdfs:label (23) [*] </tspan>
<tspan x="23" y="533">rdfs:subPropertyOf (2) [1] D -&gt; IRI</tspan>
</text>
</g>
<g id="2002723877"><polygon points="457,395 671,395 671,505 457,505 "
style="fill:#F4D03F; stroke-width:1;stroke:Black;"/>
<text style="font-family:Arial;font-size:12px;kerning:0;word-spacing:-1px;fill:Black;font-weight:bold;">
<tspan x="518" y="410">owl:Ontology (1)</tspan>
</text>
<line x1="461" y1="413" x2="669" y2="413"
 style="stroke-width:1;stroke:Black;"/>
<text style="font-family:Arial;font-size:12px;kerning:0;word-spacing:-1px;fill:Black;">
<tspan x="461" y="425">owl:imports (1) [1] D -&gt; IRI</tspan>
<tspan x="461" y="440">owl:priorVersion (1) [1] D -&gt; IRI</tspan>
<tspan x="461" y="455">owl:versionInfo (1) [1] D</tspan>
<tspan x="461" y="470">rdf:type (1) [*]  -&gt; IRI</tspan>
<tspan x="461" y="485">rdfs:comment (1) [1] D</tspan>
<tspan x="461" y="500">rdfs:isDefinedBy (3) [*] D -&gt; IRI</tspan>
</text>
</g>
<g id="2002723748"><path d="M319,63 L438,63 "
style="fill:none;stroke-width:1;stroke:Black;"/>
<line x1="432" y1="60" x2="438" y2="63"
 style="stroke-width:1;stroke:Black;"/>
<line x1="432" y1="66" x2="438" y2="63"
 style="stroke-width:1;stroke:Black;"/>
<text style="font-family:Arial;font-size:12px;kerning:0;word-spacing:-1px;fill:Black;">
<tspan x="323" y="61">dcat:distribution  R</tspan>
</text>
</g>
<g id="2002723753"><path d="M169,193 L169,245 "
style="fill:none;stroke-width:1;stroke:Black;"/>
<line x1="166" y1="239" x2="169" y2="245"
 style="stroke-width:1;stroke:Black;"/>
<line x1="172" y1="239" x2="169" y2="245"
 style="stroke-width:1;stroke:Black;"/>
<text style="font-family:Arial;font-size:12px;kerning:0;word-spacing:-1px;fill:Black;">
<tspan x="171" y="208">dcat:theme  DR</tspan>
<tspan x="171" y="223">dcat:keywordConcept  DR</tspan>
</text>
</g>
<g id="2002723758"><path d="M169,473 L169,434 "
style="fill:none;stroke-width:1;stroke:Black;"/>
<line x1="166" y1="440" x2="169" y2="434"
 style="stroke-width:1;stroke:Black;"/>
<line x1="172" y1="440" x2="169" y2="434"
 style="stroke-width:1;stroke:Black;"/>
<text style="font-family:Arial;font-size:12px;kerning:0;word-spacing:-1px;fill:Black;">
<tspan x="86" y="454">rdfs:domain  D</tspan>
<tspan x="86" y="469">rdfs:range  D</tspan>
</text>
</g>
<g id="2002723763"><path d="M147,538 L147,561 "
style="fill:none;stroke-width:2;stroke:Fuchsia;"/>
<polygon points="152,548 147,538 142,548 "
style="fill:Silver;stroke-width:1;stroke:Black;"/>
<text style="font-family:Arial;font-size:12px;kerning:0;word-spacing:-1px;fill:Black;">
<tspan x="149" y="553"> </tspan>
</text>
</g>
<g id="2002723765"><path d="M554,103 L554,149 "
style="fill:none;stroke-width:2;stroke:Fuchsia;"/>
<polygon points="559,113 554,103 549,113 "
style="fill:Silver;stroke-width:1;stroke:Black;"/>
<text style="font-family:Arial;font-size:12px;kerning:0;word-spacing:-1px;fill:Black;">
<tspan x="556" y="118"> </tspan>
</text>
</g>
</svg>
