<?xml version="1.0" encoding="UTF-8" standalone="no"?>
<!DOCTYPE svg PUBLIC "-//W3C//DTD SVG 1.1//EN"
"http://www.w3.org/Graphics/SVG/1.1/DTD/svg11.dtd">
<svg version="1.1" xmlns="http://www.w3.org/2000/svg"
xmlns:xlink="http://www.w3.org/1999/xlink" xml:space="preserve"
 width="1382" height="1097" viewBox="0 0 1382 1097">
 onmousemove="movetip(evt)" onmouseup="endmove()">
<rect x="0" y="0" width="100%" height="100%" style="fill:White;"/>
<script type="application/ecmascript"> <![CDATA[
var dragtipid = null; var dragcase = false; function init(evt){
if (window.svgDocument==null) svgDocument = evt.target.ownerDocument;
}
function movetip(evt){if (dragtipid!=null){ dragcase = true;
var tip=svgDocument.getElementById(dragtipid);
tip.setAttributeNS(null,"x",evt.clientX-2);
tip.setAttributeNS(null,"y",evt.clientY-2);
}}
function endmove(){dragtipid = null;}
function startmove(evt,id){dragtipid = id; dragcase = false;
var tip=svgDocument.getElementById(dragtipid);
tip.setAttributeNS(null,"x",evt.clientX-2);
tip.setAttributeNS(null,"y",evt.clientY-2);
}
function Showtip(evt,id){ dragtipid = null;
var tip=svgDocument.getElementById(id);
var vis=tip.getAttributeNS(null,"visibility");
if (vis=="hidden"){
tip.setAttributeNS(null,"x",evt.clientX-2);
tip.setAttributeNS(null,"y",evt.clientY-2);
tip.setAttributeNS(null,"visibility","visible");
}}
function Hidetip(id){ dragtipid = null; if (dragcase==false){
var tip=svgDocument.getElementById(id);
tip.setAttributeNS(null,"visibility","hidden");
}}
]]></script>
<defs><linearGradient id="activ1" x1="0%" y1="0%" x2="100%" y2="0%">
<stop offset="0%" style="stop-color:#FFFF00;stop-opacity:1"/>
<stop offset="100%" style="stop-color:#FFFFF0;stop-opacity:1"/>
</linearGradient></defs>
<g id="2002799714"><polygon points="611,721 911,721 911,801 611,801 "
style="fill:#F4D03F; stroke-width:1;stroke:Black;"/>
<text style="font-family:Arial;font-size:12px;kerning:0;word-spacing:-1px;fill:Black;font-weight:bold;">
<tspan x="694" y="736">owl:ObjectProperty (17)</tspan>
</text>
<line x1="615" y1="739" x2="909" y2="739"
 style="stroke-width:1;stroke:Black;"/>
<text style="font-family:Arial;font-size:12px;kerning:0;word-spacing:-1px;fill:Black;">
<tspan x="615" y="751">rdf:type (17) [*]  -&gt;  owl:Class</tspan>
<tspan x="615" y="766">rdfs:comment (9) [*] </tspan>
<tspan x="615" y="781">rdfs:label (31) [*] </tspan>
<tspan x="615" y="796">rdfs:subPropertyOf (1) [1]  -&gt; IRI</tspan>
</text>
</g>
<g id="2002799725"><polygon points="1042,917 1342,917 1342,1087 1042,1087 "
style="fill:#F4D03F; stroke-width:1;stroke:Black;"/>
<text style="font-family:Arial;font-size:12px;kerning:0;word-spacing:-1px;fill:Black;font-weight:bold;">
<tspan x="1077" y="932">annotaatio:annotationKalevalaPlace (24)</tspan>
</text>
<line x1="1046" y1="935" x2="1340" y2="935"
 style="stroke-width:1;stroke:Black;"/>
<text style="font-family:Arial;font-size:12px;kerning:0;word-spacing:-1px;fill:Black;">
<tspan x="1046" y="947">annotaatio:description (21) [1] </tspan>
<tspan x="1046" y="962">annotaatio:tietolahde (42) [*]  -&gt; IRI</tspan>
<tspan x="1046" y="977">core:altLabel (31) [*] </tspan>
<tspan x="1046" y="992">core:prefLabel (24) [*] </tspan>
<tspan x="1046" y="1007">rdf:type (24) [*]  -&gt;  owl:Class</tspan>
<tspan x="1046" y="1022">rdfs:label (24) [*] </tspan>
<tspan x="1046" y="1037">tilanne:elementtiInstance (53) [*]  -&gt;  core:Concept,</tspan>
<tspan x="1046" y="1052">annotaatio:annotationKalevalaPlace..(7)</tspan>
<tspan x="1046" y="1067">&lt;- tilanne:elementtiInstance (503)  &lt;-  annotaatio:</tspan>
<tspan x="1046" y="1082">runo,annotaatio:annotationKalevalaPlace..(4)</tspan>
</text>
</g>
<g id="2002799736"><polygon points="118,274 418,274 418,369 118,369 "
style="fill:#F4D03F; stroke-width:1;stroke:Black;"/>
<text style="font-family:Arial;font-size:12px;kerning:0;word-spacing:-1px;fill:Black;font-weight:bold;">
<tspan x="209" y="289">core:Collection (181)</tspan>
</text>
<line x1="122" y1="292" x2="416" y2="292"
 style="stroke-width:1;stroke:Black;"/>
<text style="font-family:Arial;font-size:12px;kerning:0;word-spacing:-1px;fill:Black;">
<tspan x="122" y="304">core:altLabel (4) [*] </tspan>
<tspan x="122" y="319">core:prefLabel (220) [*] </tspan>
<tspan x="122" y="334">core:scopeNote (4) [*] </tspan>
<tspan x="122" y="349">dc:creator (6) [1] </tspan>
<tspan x="122" y="364">rdf:type (181) [*]  -&gt;  owl:Class</tspan>
</text>
</g>
<g id="2002799747"><polygon points="1040,590 1340,590 1340,700 1040,700 "
style="fill:#F4D03F; stroke-width:1;stroke:Black;"/>
<text style="font-family:Arial;font-size:12px;kerning:0;word-spacing:-1px;fill:Black;font-weight:bold;">
<tspan x="1133" y="605">annotaatio:runo (52)</tspan>
</text>
<line x1="1044" y1="608" x2="1338" y2="608"
 style="stroke-width:1;stroke:Black;"/>
<text style="font-family:Arial;font-size:12px;kerning:0;word-spacing:-1px;fill:Black;">
<tspan x="1044" y="620">annotaatio:description (1) [1] </tspan>
<tspan x="1044" y="635">core:prefLabel (52) [*] </tspan>
<tspan x="1044" y="650">rdf:type (52) [*]  -&gt;  owl:Class</tspan>
<tspan x="1044" y="665">rdfs:label (52) [*] </tspan>
<tspan x="1044" y="680">tilanne:elementtiInstance (459) [*]  -&gt;  core:Concept,</tspan>
<tspan x="1044" y="695">annotaatio:annotationKalevalaPlace..(7)</tspan>
</text>
</g>
<g id="2002799758"><polygon points="100,874 491,874 491,1059 100,1059 "
style="fill:#F4D03F; stroke-width:1;stroke:Black;"/>
<text style="font-family:Arial;font-size:12px;kerning:0;word-spacing:-1px;fill:Black;font-weight:bold;">
<tspan x="200" y="889">annotaatio:kalevala_toimijat (104)</tspan>
</text>
<line x1="104" y1="892" x2="489" y2="892"
 style="stroke-width:1;stroke:Black;"/>
<text style="font-family:Arial;font-size:12px;kerning:0;word-spacing:-1px;fill:Black;">
<tspan x="104" y="904">annotaatio:description (70) [1] </tspan>
<tspan x="104" y="919">annotaatio:tietolahde (106) [*]  -&gt; IRI</tspan>
<tspan x="104" y="934">core:altLabel (81) [*] </tspan>
<tspan x="104" y="949">core:prefLabel (104) [*] </tspan>
<tspan x="104" y="964">rdf:type (104) [*]  -&gt;  owl:Class</tspan>
<tspan x="104" y="979">rdfs:label (104) [*] </tspan>
<tspan x="104" y="994">tilanne:elementtiInstance (46) [*]  -&gt;  core:Concept,annotaatio:</tspan>
<tspan x="104" y="1009">annotationKalevalaPlace..(7)</tspan>
<tspan x="104" y="1024">&lt;- tilanne:elementtiInstance (3065)  &lt;-  annotaatio:runo,annotaatio:</tspan>
<tspan x="104" y="1039">annotationKalevalaPlace..(4)</tspan>
<tspan x="104" y="1054">&lt;&gt; annotaatio:relatesToKalevalaActor  DR</tspan>
</text>
</g>
<g id="2002799769"><polygon points="104,655 484,655 484,846 104,846 "
style="fill:White; stroke-width:1;stroke:Black;"/>
<text style="font-family:Arial;font-size:12px;kerning:0;word-spacing:-1px;fill:Black;">
<tspan x="108" y="669">PREFIX core: &lt;http://www.w3.org/2004/02/skos/core#&gt;</tspan>
<tspan x="108" y="684">PREFIX annotaatio: &lt;http://kulttuurisampo.fi/annotaatio#&gt;</tspan>
<tspan x="108" y="699">PREFIX owl: &lt;http://www.w3.org/2002/07/owl#&gt;</tspan>
<tspan x="108" y="714">PREFIX rdfs: &lt;http://www.w3.org/2000/01/rdf-schema#&gt;</tspan>
<tspan x="108" y="729">PREFIX tilanne: &lt;http://yso.fi/tilanne#&gt;</tspan>
<tspan x="108" y="744">PREFIX skosext: &lt;http://purl.org/finnonto/schema/skosext#&gt;</tspan>
<tspan x="108" y="759">PREFIX yso: &lt;http://yso.fi/YSO#&gt;</tspan>
<tspan x="108" y="774">PREFIX rdf: &lt;http://www.w3.org/1999/02/22-rdf-syntax-ns#&gt;</tspan>
<tspan x="108" y="789">PREFIX dc: &lt;http://purl.org/dc/elements/1.1/&gt;</tspan>
<tspan x="108" y="804">PREFIX koko: &lt;http://www.yso.fi/onto/koko/&gt;</tspan>
<tspan x="108" y="819">PREFIX dct: &lt;http://purl.org/dc/terms/&gt;</tspan>
<tspan x="108" y="834">PREFIX yso-mets: &lt;http://www.yso.fi/onto/yso-meta/2007-03-02/&gt;</tspan>
</text>
</g>
<g id="2002799780"><polygon points="1050,123 1350,123 1350,188 1050,188 "
style="fill:#F4D03F; stroke-width:1;stroke:Black;"/>
<text style="font-family:Arial;font-size:12px;kerning:0;word-spacing:-1px;fill:Black;font-weight:bold;">
<tspan x="1131" y="138">annotaatio:placeRole (3)</tspan>
</text>
<line x1="1054" y1="141" x2="1348" y2="141"
 style="stroke-width:1;stroke:Black;"/>
<text style="font-family:Arial;font-size:12px;kerning:0;word-spacing:-1px;fill:Black;">
<tspan x="1054" y="153">annotaatio:nimi (3) [1] D</tspan>
<tspan x="1054" y="168">rdf:type (3) [*]  -&gt;  owl:Class</tspan>
<tspan x="1054" y="183">rdfs:label (3) [*] </tspan>
</text>
</g>
<g id="2002799791"><polygon points="1047,224 1347,224 1347,274 1047,274 "
style="fill:#F4D03F; stroke-width:1;stroke:Black;"/>
<text style="font-family:Arial;font-size:12px;kerning:0;word-spacing:-1px;fill:Black;font-weight:bold;">
<tspan x="1153" y="239">yso:kalevala (1)</tspan>
</text>
<line x1="1051" y1="242" x2="1345" y2="242"
 style="stroke-width:1;stroke:Black;"/>
<text style="font-family:Arial;font-size:12px;kerning:0;word-spacing:-1px;fill:Black;">
<tspan x="1051" y="254">rdf:type (1) [*]  -&gt;  owl:Class</tspan>
<tspan x="1051" y="269">rdfs:label (1) [*] </tspan>
</text>
</g>
<g id="2002799802"><polygon points="611,1006 911,1006 911,1071 611,1071 "
style="fill:#F4D03F; stroke-width:1;stroke:Black;"/>
<text style="font-family:Arial;font-size:12px;kerning:0;word-spacing:-1px;fill:Black;font-weight:bold;">
<tspan x="690" y="1021">owl:DatatypeProperty (7)</tspan>
</text>
<line x1="615" y1="1024" x2="909" y2="1024"
 style="stroke-width:1;stroke:Black;"/>
<text style="font-family:Arial;font-size:12px;kerning:0;word-spacing:-1px;fill:Black;">
<tspan x="615" y="1036">rdf:type (7) [*]  -&gt;  owl:Class</tspan>
<tspan x="615" y="1051">rdfs:label (14) [*] </tspan>
<tspan x="615" y="1066">rdfs:subPropertyOf (2) [1]  -&gt; IRI</tspan>
</text>
</g>
<g id="2002799813"><polygon points="610,638 910,638 910,683 610,683 "
style="fill:#F4D03F; stroke-width:1;stroke:Black;"/>
<text style="font-family:Arial;font-size:12px;kerning:0;word-spacing:-1px;fill:Black;font-weight:bold;">
<tspan x="666" y="653">skosext:DeprecatedConcept (79)</tspan>
</text>
<line x1="614" y1="656" x2="908" y2="656"
 style="stroke-width:1;stroke:Black;"/>
<text style="font-family:Arial;font-size:12px;kerning:0;word-spacing:-1px;fill:Black;">
<tspan x="614" y="668">owl:deprecated (79) [1] D</tspan>
</text>
</g>
<g id="2002799824"><polygon points="1047,314 1347,314 1347,379 1047,379 "
style="fill:#F4D03F; stroke-width:1;stroke:Black;"/>
<text style="font-family:Arial;font-size:12px;kerning:0;word-spacing:-1px;fill:Black;font-weight:bold;">
<tspan x="1126" y="329">core:ConceptScheme (3)</tspan>
</text>
<line x1="1051" y1="332" x2="1345" y2="332"
 style="stroke-width:1;stroke:Black;"/>
<text style="font-family:Arial;font-size:12px;kerning:0;word-spacing:-1px;fill:Black;">
<tspan x="1051" y="344">owl:versionInfo (1) [1] D</tspan>
<tspan x="1051" y="359">rdf:type (3) [*]  -&gt;  owl:Class</tspan>
<tspan x="1051" y="374">rdfs:label (1) [*] </tspan>
</text>
</g>
<g id="2002799835"><polygon points="114,110 414,110 414,190 114,190 "
style="fill:#F4D03F; stroke-width:1;stroke:Black;"/>
<text style="font-family:Arial;font-size:12px;kerning:0;word-spacing:-1px;fill:Black;font-weight:bold;">
<tspan x="222" y="125">koko:p1489 (2)</tspan>
</text>
<line x1="118" y1="128" x2="412" y2="128"
 style="stroke-width:1;stroke:Black;"/>
<text style="font-family:Arial;font-size:12px;kerning:0;word-spacing:-1px;fill:Black;">
<tspan x="118" y="140">rdf:type (2) [*]  -&gt;  owl:Class</tspan>
<tspan x="118" y="155">rdfs:label (2) [*] </tspan>
<tspan x="118" y="170">&lt;- tilanne:elementtiInstance (2)  &lt;-  annotaatio:runo,</tspan>
<tspan x="118" y="185">annotaatio:annotationKalevalaPlace..(4)</tspan>
</text>
</g>
<g id="2002799846"><polygon points="592,269 892,269 892,544 592,544 "
style="fill:#F4D03F; stroke-width:1;stroke:Black;"/>
<text style="font-family:Arial;font-size:12px;kerning:0;word-spacing:-1px;fill:Black;font-weight:bold;">
<tspan x="682" y="284">core:Concept (2.6e4)</tspan>
</text>
<line x1="596" y1="287" x2="890" y2="287"
 style="stroke-width:1;stroke:Black;"/>
<text style="font-family:Arial;font-size:12px;kerning:0;word-spacing:-1px;fill:Black;">
<tspan x="596" y="299">core:altLabel (1.3e4) [*] </tspan>
<tspan x="596" y="314">core:closeMatch (4.8e4) [*] D -&gt; IRI</tspan>
<tspan x="596" y="329">core:prefLabel (7.4e4) [*] </tspan>
<tspan x="596" y="344">core:scopeNote (2179) [*] </tspan>
<tspan x="596" y="359">dc:creator (18) [1] </tspan>
<tspan x="596" y="374">dc:source (1708) [*] D</tspan>
<tspan x="596" y="389">rdf:type (2.6e4) [*]  -&gt;  owl:Class</tspan>
<tspan x="596" y="404">rdfs:comment (1392) [*] </tspan>
<tspan x="596" y="419">&lt;- tilanne:elementtiInstance (7826)  &lt;-  annotaatio:</tspan>
<tspan x="596" y="434">runo,annotaatio:annotationKalevalaPlace..(4)</tspan>
<tspan x="596" y="449">&lt;&gt; core:broader  DR</tspan>
<tspan x="596" y="464">&lt;&gt; core:narrowMatch  DR</tspan>
<tspan x="596" y="479">&lt;&gt; core:narrower  DR</tspan>
<tspan x="596" y="494">&lt;&gt; core:related  DR</tspan>
<tspan x="596" y="509">&lt;&gt; dct:isReplacedBy  DR</tspan>
<tspan x="596" y="524">&lt;&gt; owl:sameAs  DR</tspan>
<tspan x="596" y="539">&lt;&gt; skosext:partOf  DR</tspan>
</text>
</g>
<g id="2002799857"><polygon points="1042,423 1342,423 1342,518 1042,518 "
style="fill:#F4D03F; stroke-width:1;stroke:Black;"/>
<text style="font-family:Arial;font-size:12px;kerning:0;word-spacing:-1px;fill:Black;font-weight:bold;">
<tspan x="1135" y="438">annotaatio:tarina (1)</tspan>
</text>
<line x1="1046" y1="441" x2="1340" y2="441"
 style="stroke-width:1;stroke:Black;"/>
<text style="font-family:Arial;font-size:12px;kerning:0;word-spacing:-1px;fill:Black;">
<tspan x="1046" y="453">core:prefLabel (1) [*] </tspan>
<tspan x="1046" y="468">rdf:type (1) [*]  -&gt;  owl:Class</tspan>
<tspan x="1046" y="483">rdfs:label (1) [*] </tspan>
<tspan x="1046" y="498">&lt;- tilanne:elementtiInstance (1)  &lt;-  annotaatio:runo,</tspan>
<tspan x="1046" y="513">annotaatio:annotationKalevalaPlace..(4)</tspan>
</text>
</g>
<g id="2002799868"><polygon points="1041,753 1341,753 1341,893 1041,893 "
style="fill:#F4D03F; stroke-width:1;stroke:Black;"/>
<text style="font-family:Arial;font-size:12px;kerning:0;word-spacing:-1px;fill:Black;font-weight:bold;">
<tspan x="1118" y="768">tilanne:runoTilanne (2227)</tspan>
</text>
<line x1="1045" y1="771" x2="1339" y2="771"
 style="stroke-width:1;stroke:Black;"/>
<text style="font-family:Arial;font-size:12px;kerning:0;word-spacing:-1px;fill:Black;">
<tspan x="1045" y="783">annotaatio:description (7) [1] </tspan>
<tspan x="1045" y="798">annotaatio:poemEndRow (2218) [1] D</tspan>
<tspan x="1045" y="813">annotaatio:poemStartRow (2219) [1] D</tspan>
<tspan x="1045" y="828">core:prefLabel (2227) [*] </tspan>
<tspan x="1045" y="843">rdf:type (2227) [*]  -&gt;  owl:Class</tspan>
<tspan x="1045" y="858">rdfs:label (2227) [*] </tspan>
<tspan x="1045" y="873">tilanne:elementtiInstance (1.4e4) [*]  -&gt;  core:Concept,</tspan>
<tspan x="1045" y="888">annotaatio:annotationKalevalaPlace..(7)</tspan>
</text>
</g>
<g id="2002799879"><polygon points="609,847 909,847 909,972 609,972 "
style="fill:#F4D03F; stroke-width:1;stroke:Black;"/>
<text style="font-family:Arial;font-size:12px;kerning:0;word-spacing:-1px;fill:Black;font-weight:bold;">
<tspan x="719" y="862">owl:Class (23)</tspan>
</text>
<line x1="613" y1="865" x2="907" y2="865"
 style="stroke-width:1;stroke:Black;"/>
<text style="font-family:Arial;font-size:12px;kerning:0;word-spacing:-1px;fill:Black;">
<tspan x="613" y="877">owl:unionOf (2) [1] D -&gt; IRI</tspan>
<tspan x="613" y="892">rdf:type (23) [*]  -&gt;  owl:Class</tspan>
<tspan x="613" y="907">rdfs:comment (5) [*] </tspan>
<tspan x="613" y="922">rdfs:label (40) [*] </tspan>
<tspan x="613" y="937">&lt;- rdf:type (2468)  &lt;-  annotaatio:runo,yso:kalevala..</tspan>
<tspan x="613" y="952">(16)</tspan>
<tspan x="613" y="967">&lt;&gt; rdfs:subClassOf  D</tspan>
</text>
</g>
<g id="2002799890"><polygon points="115,433 415,433 415,528 115,528 "
style="fill:#F4D03F; stroke-width:1;stroke:Black;"/>
<text style="font-family:Arial;font-size:12px;kerning:0;word-spacing:-1px;fill:Black;font-weight:bold;">
<tspan x="155" y="448">annotaatio:annotationObjectClass (49)</tspan>
</text>
<line x1="119" y1="451" x2="413" y2="451"
 style="stroke-width:1;stroke:Black;"/>
<text style="font-family:Arial;font-size:12px;kerning:0;word-spacing:-1px;fill:Black;">
<tspan x="119" y="463">core:prefLabel (49) [*] </tspan>
<tspan x="119" y="478">rdf:type (49) [*]  -&gt;  owl:Class</tspan>
<tspan x="119" y="493">rdfs:label (49) [*] </tspan>
<tspan x="119" y="508">&lt;- tilanne:elementtiInstance (1778)  &lt;-  annotaatio:</tspan>
<tspan x="119" y="523">runo,annotaatio:annotationKalevalaPlace..(4)</tspan>
</text>
</g>
<g id="2002799901"><polygon points="592,104 892,104 892,199 592,199 "
style="fill:#F4D03F; stroke-width:1;stroke:Black;"/>
<text style="font-family:Arial;font-size:12px;kerning:0;word-spacing:-1px;fill:Black;font-weight:bold;">
<tspan x="628" y="119">annotaatio:annotationObjectInstance (8)</tspan>
</text>
<line x1="596" y1="122" x2="890" y2="122"
 style="stroke-width:1;stroke:Black;"/>
<text style="font-family:Arial;font-size:12px;kerning:0;word-spacing:-1px;fill:Black;">
<tspan x="596" y="134">core:prefLabel (8) [*] </tspan>
<tspan x="596" y="149">rdf:type (8) [*]  -&gt;  owl:Class</tspan>
<tspan x="596" y="164">rdfs:label (8) [*] </tspan>
<tspan x="596" y="179">&lt;- tilanne:elementtiInstance (1)  &lt;-  annotaatio:runo,</tspan>
<tspan x="596" y="194">annotaatio:annotationKalevalaPlace..(4)</tspan>
</text>
</g>
<g id="2002799657"><path d="M892,373 L1047,373 "
style="fill:none;stroke-width:1;stroke:Black;"/>
<line x1="1041" y1="370" x2="1047" y2="373"
 style="stroke-width:1;stroke:Black;"/>
<line x1="1041" y1="376" x2="1047" y2="373"
 style="stroke-width:1;stroke:Black;"/>
<text style="font-family:Arial;font-size:12px;kerning:0;word-spacing:-1px;fill:Black;">
<tspan x="896" y="356">core:inScheme  DR</tspan>
<tspan x="896" y="371">core:topConceptOf  DR</tspan>
</text>
</g>
<g id="2002799662"><path d="M1188,518 L1188,590 "
style="fill:none;stroke-width:1;stroke:Black;"/>
<line x1="1185" y1="584" x2="1188" y2="590"
 style="stroke-width:1;stroke:Black;"/>
<line x1="1191" y1="584" x2="1188" y2="590"
 style="stroke-width:1;stroke:Black;"/>
<text style="font-family:Arial;font-size:12px;kerning:0;word-spacing:-1px;fill:Black;">
<tspan x="1190" y="533">yso:partitiveRelationInstance  DR</tspan>
</text>
</g>
<g id="2002799667"><path d="M1171,700 L1171,753 "
style="fill:none;stroke-width:1;stroke:Black;"/>
<line x1="1168" y1="747" x2="1171" y2="753"
 style="stroke-width:1;stroke:Black;"/>
<line x1="1174" y1="747" x2="1171" y2="753"
 style="stroke-width:1;stroke:Black;"/>
<text style="font-family:Arial;font-size:12px;kerning:0;word-spacing:-1px;fill:Black;">
<tspan x="1173" y="715">annotaatio:hasScene  DR</tspan>
</text>
</g>
<g id="2002799672"><path d="M739,199 L739,269 "
style="fill:none;stroke-width:1;stroke:Black;"/>
<line x1="736" y1="263" x2="739" y2="269"
 style="stroke-width:1;stroke:Black;"/>
<line x1="742" y1="263" x2="739" y2="269"
 style="stroke-width:1;stroke:Black;"/>
<text style="font-family:Arial;font-size:12px;kerning:0;word-spacing:-1px;fill:Black;">
<tspan x="741" y="214">annotaatio:instanceOf  DR</tspan>
</text>
</g>
<g id="2002799677"><path d="M766,1006 L766,972 "
style="fill:none;stroke-width:1;stroke:Black;"/>
<line x1="763" y1="978" x2="766" y2="972"
 style="stroke-width:1;stroke:Black;"/>
<line x1="769" y1="978" x2="766" y2="972"
 style="stroke-width:1;stroke:Black;"/>
<text style="font-family:Arial;font-size:12px;kerning:0;word-spacing:-1px;fill:Black;">
<tspan x="692" y="1002">rdfs:domain  </tspan>
</text>
</g>
<g id="2002799682"><path d="M276,433 L276,369 "
style="fill:none;stroke-width:1;stroke:Black;"/>
<line x1="273" y1="375" x2="276" y2="369"
 style="stroke-width:1;stroke:Black;"/>
<line x1="279" y1="375" x2="276" y2="369"
 style="stroke-width:1;stroke:Black;"/>
<text style="font-family:Arial;font-size:12px;kerning:0;word-spacing:-1px;fill:Black;">
<tspan x="132" y="429">annotaatio:subClassOf  D</tspan>
</text>
</g>
<g id="2002799687"><path d="M415,502 L592,502 "
style="fill:none;stroke-width:1;stroke:Black;"/>
<line x1="586" y1="499" x2="592" y2="502"
 style="stroke-width:1;stroke:Black;"/>
<line x1="586" y1="505" x2="592" y2="502"
 style="stroke-width:1;stroke:Black;"/>
<text style="font-family:Arial;font-size:12px;kerning:0;word-spacing:-1px;fill:Black;">
<tspan x="419" y="500">annotaatio:subClassOf  D</tspan>
</text>
</g>
<g id="2002799692"><path d="M1047,326 L892,326 "
style="fill:none;stroke-width:1;stroke:Black;"/>
<line x1="898" y1="323" x2="892" y2="326"
 style="stroke-width:1;stroke:Black;"/>
<line x1="898" y1="329" x2="892" y2="326"
 style="stroke-width:1;stroke:Black;"/>
<text style="font-family:Arial;font-size:12px;kerning:0;word-spacing:-1px;fill:Black;">
<tspan x="904" y="339">core:hasTopConcept  DR</tspan>
</text>
</g>
<g id="2002799697"><path d="M418,311 L592,311 "
style="fill:none;stroke-width:1;stroke:Black;"/>
<line x1="586" y1="308" x2="592" y2="311"
 style="stroke-width:1;stroke:Black;"/>
<line x1="586" y1="314" x2="592" y2="311"
 style="stroke-width:1;stroke:Black;"/>
<text style="font-family:Arial;font-size:12px;kerning:0;word-spacing:-1px;fill:Black;">
<tspan x="422" y="309">core:member  DR</tspan>
</text>
</g>
<g id="2002799702"><path d="M716,638 L716,544 "
style="fill:none;stroke-width:1;stroke:Black;"/>
<line x1="713" y1="550" x2="716" y2="544"
 style="stroke-width:1;stroke:Black;"/>
<line x1="719" y1="550" x2="716" y2="544"
 style="stroke-width:1;stroke:Black;"/>
<text style="font-family:Arial;font-size:12px;kerning:0;word-spacing:-1px;fill:Black;">
<tspan x="496" y="604">core:broadMatch  DR</tspan>
<tspan x="496" y="619">core:relatedMatch  DR</tspan>
<tspan x="496" y="634">yso-mets:deprecatedSuperClassOf  DR</tspan>
</text>
</g>
<g id="2002799707"><path d="M736,801 L736,847 "
style="fill:none;stroke-width:1;stroke:Black;"/>
<line x1="733" y1="841" x2="736" y2="847"
 style="stroke-width:1;stroke:Black;"/>
<line x1="739" y1="841" x2="736" y2="847"
 style="stroke-width:1;stroke:Black;"/>
<text style="font-family:Arial;font-size:12px;kerning:0;word-spacing:-1px;fill:Black;">
<tspan x="738" y="816">rdfs:domain  </tspan>
<tspan x="738" y="831">rdfs:range  DR</tspan>
</text>
</g>
<g id="2002799712"><path d="M786,544 L786,638 "
style="fill:none;stroke-width:2;stroke:Fuchsia;"/>
<polygon points="791,554 786,544 781,554 "
style="fill:Silver;stroke-width:1;stroke:Black;"/>
<text style="font-family:Arial;font-size:12px;kerning:0;word-spacing:-1px;fill:Black;">
<tspan x="788" y="559"> </tspan>
</text>
</g>
</svg>
